<svg id="Layer_1" data-name="Layer 1" xmlns="http://www.w3.org/2000/svg" viewBox="0 0 1667.23 936.49"><defs><style>.cls-1{fill:#333d45;}.cls-2{fill:#1e88e5;}</style></defs><title>dark</title><path class="cls-1" d="M675.66,1357.74a6.12,6.12,0,0,1-3.21,7.47q-5,2.34-12.31,5.51-11.31,4.92-26,9.83a302.74,302.74,0,0,1-33.41,8.84,191.26,191.26,0,0,1-39.31,3.93,142.44,142.44,0,0,1-41.27-5.9,96.09,96.09,0,0,1-34.4-18.17,89.49,89.49,0,0,1-23.58-31q-8.85-18.66-8.84-43.24V928.51H388.67a6.14,6.14,0,0,1-6.14-6.14V881.59a6.14,6.14,0,0,1,6.14-6.14h64.62V708.64a6.14,6.14,0,0,1,6.14-6.14H514a6.14,6.14,0,0,1,6.15,6.14V875.45H631.89a6.14,6.14,0,0,1,6.14,6.14v40.78a6.14,6.14,0,0,1-6.14,6.14H520.11v347.87q1.95,28.51,20.14,41.77T582,1331.41q28.49,0,50.11-9.33,13.86-6,21.26-9.75a6.12,6.12,0,0,1,8.58,3.58Z" transform="translate(-366.38 -670.07)"/><rect class="cls-2" x="394.47" width="66.82" height="98.27" rx="6.14" ry="6.14"/><rect class="cls-1" x="394.47" y="205.38" width="66.82" height="511.98" rx="6.14" ry="6.14"/><path class="cls-1" d="M1399.34,1387.42H1344.8a6.13,6.13,0,0,1-6.14-6.14V1101.47q0-91.4-27-132.67t-83-41.27a170.35,170.35,0,0,0-58.95,10.81,199.28,199.28,0,0,0-54.54,30.46,233.33,233.33,0,0,0-44.71,46.68,182.66,182.66,0,0,0-28.5,58.47v307.33a6.13,6.13,0,0,1-6.14,6.14H981.21a6.13,6.13,0,0,1-6.14-6.14V881.59a6.14,6.14,0,0,1,6.14-6.14h48.64a6.14,6.14,0,0,1,6.14,6.14V991.41q31.44-56,89.92-90.41t127.25-34.39q42.25,0,71.74,15.72a122.61,122.61,0,0,1,47.17,44.22q17.68,28.51,25.55,69.77t7.86,91.39v293.57A6.13,6.13,0,0,1,1399.34,1387.42Z" transform="translate(-366.38 -670.07)"/><path class="cls-1" d="M1565.65,1551.51a6.14,6.14,0,0,1,6.75-6.1q4.32.43,8.48.72c4.92.32,9.66.49,14.25.49q17.68,0,28-4.91t20.14-21.62q9.81-16.72,22.11-48.16t34.89-84.51L1481,884a6.14,6.14,0,0,1,5.63-8.59h55.33a6.14,6.14,0,0,1,5.66,3.76l188.08,446.31L1910,879.36a6.14,6.14,0,0,1,5.72-3.91h50.59a6.14,6.14,0,0,1,5.7,8.43L1710.1,1535.81q-10.81,28.49-35.86,49.63t-68.3,21.12q-9.82,0-18.67-.49-6.93-.39-16.28-1.68a6.18,6.18,0,0,1-5.34-6.09Z" transform="translate(-366.38 -670.07)"/><path class="cls-2" d="M2007.28,1078.87a42.46,42.46,0,0,0-55.45,22.37l-29,66.06c-8.64,22.45,1,46.37,22.81,56.54,1.53.65,4.14.86,5.67,1.51l9.73-22.89c-1.53-.65-4.14-.86-5.67-1.51a18.4,18.4,0,0,1-9.65-23.92l28.54-67.14a18.24,18.24,0,1,1,33.57,14.26l-8.43,19.84a51.88,51.88,0,0,1,15.32,25.43l14.91-35.1A40.48,40.48,0,0,0,2007.28,1078.87Z" transform="translate(-366.38 -670.07)"/><path class="cls-2" d="M1973.72,1143l-9.73,22.89a46.85,46.85,0,0,1,5.67,1.51,18.4,18.4,0,0,1,9.65,23.92l-28.54,67.14a18.24,18.24,0,1,1-33.57-14.26l8.43-19.84c-7.86-6.95-6.79-13.7-15.31-25.43L1895.4,1234a42.28,42.28,0,0,0,77.83,33.08l28.53-67.15a42.46,42.46,0,0,0-22.37-55.45A21.94,21.94,0,0,1,1973.72,1143Z" transform="translate(-366.38 -670.07)"/><path class="cls-1" d="M504,928.49H372.53a6.14,6.14,0,0,1-6.15-6.14V881.57a6.14,6.14,0,0,1,6.15-6.14h64.61" transform="translate(-366.38 -670.07)"/><path class="cls-2" d="M453.24,875.43h178.6a6.14,6.14,0,0,1,6.14,6.14v40.78a6.14,6.14,0,0,1-6.14,6.14H520.06" transform="translate(-366.38 -670.07)"/></svg>